<svg version="1.1" id="Layer_1" xmlns="http://www.w3.org/2000/svg" xmlns:xlink="http://www.w3.org/1999/xlink" x="0px" y="0px"
	 width="209.002px" height="55.587px" viewBox="7.001 8.333 209.002 55.587" enable-background="new 7.001 8.333 209.002 55.587"
	 xml:space="preserve">
<path fill="#F37522" d="M104.444,49.87c-1.871,0-3.593,0-5.376,0c0-9.113,0-18.192,0-27.32c1.779,0,3.526,0,5.341,0
	c0,1.099,0,2.154,0,3.482c0.421-0.356,0.68-0.565,0.928-0.787c1.71-1.529,3.556-2.84,5.879-3.21
	c3.375-0.537,6.165,0.557,8.337,3.195c0.4,0.485,0.746,1.017,1.139,1.558c0.746-0.707,1.438-1.425,2.195-2.067
	c2.62-2.227,5.59-3.42,9.049-2.583c3.875,0.938,5.887,3.679,6.64,7.433c0.254,1.266,0.38,2.576,0.391,3.867
	c0.046,5.232,0.021,10.467,0.023,15.699c0,0.225,0,0.447,0,0.717c-1.849,0-3.597,0-5.441,0c0-0.408,0-0.766,0-1.123
	c0-4.833,0.021-9.667-0.016-14.5c-0.009-1.158-0.095-2.341-0.343-3.469c-0.719-3.278-3.235-4.816-6.504-4.083
	c-1.947,0.438-3.402,1.631-4.647,3.102c-0.218,0.257-0.226,0.741-0.228,1.121c-0.013,5.933-0.009,11.866-0.009,17.8
	c0,0.36,0,0.723,0,1.145c-1.815,0-3.563,0-5.469,0c0-0.383,0.002-0.764,0-1.146c-0.031-5.232-0.054-10.465-0.103-15.696
	c-0.008-0.695-0.114-1.394-0.222-2.083c-0.493-3.19-2.237-4.758-6.161-4.337c-2.195,0.235-3.727,1.674-5.145,3.201
	c-0.225,0.242-0.248,0.735-0.249,1.113c-0.015,5.935-0.01,11.866-0.01,17.8C104.444,49.059,104.444,49.42,104.444,49.87z"/>
<path fill="#F37624" d="M151.66,49.402c0,4.884,0,9.632,0,14.438c-1.877,0-3.662,0-5.521,0c0-13.736,0-27.478,0-41.213
	c0.068-0.04,0.123-0.101,0.178-0.1c4.228,0.056,8.472-0.102,12.679,0.227c6.438,0.503,10.905,4.588,11.881,10.764
	c0.888,5.613-0.37,10.654-5.078,14.3c-3.825,2.964-8.168,3.276-12.711,2C152.648,49.695,152.215,49.564,151.66,49.402z
	 M151.675,27.712c0.038-0.054,0.003-0.027,0.003,0c-0.013,5.43-0.027,10.861-0.017,16.291c0.001,0.24,0.188,0.594,0.392,0.699
	c2.813,1.475,6.879,1.859,9.768-0.316c3.38-2.545,4.191-6.082,3.593-10.066c-0.558-3.693-3.048-6.222-6.738-6.566
	C156.4,27.539,154.091,27.712,151.675,27.712z"/>
<path fill="#F37522" d="M59.601,22.821c0-4.804,0-9.596,0-14.455c1.833,0,3.612,0,5.446,0c0,13.825,0,27.64,0,41.541
	c-1.944,0-3.838,0.02-5.73-0.006c-2.729-0.037-5.482,0.102-8.183-0.207c-5.663-0.646-9.726-4.664-10.723-10.281
	c-0.525-2.961-0.515-5.907,0.482-8.779c2.077-5.981,8.122-9.589,14.478-8.64C56.746,22.2,58.104,22.525,59.601,22.821z
	 M59.602,45.396c0-0.591,0-0.952,0-1.313c0-4.826,0-9.652,0-14.479c0-2.003,0-2.003-1.972-2.609
	c-5.306-1.633-10.099,0.716-11.541,5.697c-0.69,2.383-0.735,4.815-0.036,7.192c0.807,2.74,2.481,4.806,5.462,5.154
	C54.144,45.347,56.815,45.288,59.602,45.396z"/>
<path fill="#F37623" d="M68.632,22.5c1.997,0,3.886-0.03,5.772,0.034c0.265,0.01,0.606,0.44,0.757,0.751
	c2.161,4.461,4.294,8.936,6.437,13.406c0.167,0.347,0.352,0.685,0.601,1.17c0.246-0.495,0.426-0.836,0.586-1.185
	c2.052-4.476,4.114-8.946,6.136-13.435c0.26-0.578,0.559-0.775,1.185-0.759c1.722,0.045,3.446,0.016,5.305,0.016
	c-1.135,2.427-2.213,4.741-3.298,7.052c-5.248,11.171-10.502,22.338-15.731,33.518c-0.296,0.634-0.634,0.873-1.338,0.851
	c-1.66-0.057-3.323-0.02-5.128-0.02c0.212-0.49,0.37-0.88,0.547-1.26c2.753-5.874,5.496-11.754,8.279-17.612
	c0.348-0.729,0.348-1.297-0.018-2.028c-3.224-6.461-6.404-12.941-9.596-19.417C68.97,23.261,68.83,22.933,68.632,22.5z"/>
<path fill="#F37521" d="M177.451,8.333c1.794,0,3.516,0,5.3,0c0,13.837,0,27.64,0,41.507c-1.744,0-3.489,0-5.3,0
	C177.451,36.034,177.451,22.23,177.451,8.333z"/>
<path fill="#D0CECE" d="M216.001,34.562c-0.005,4.431-3.703,8.125-8.138,8.129c-4.486,0.003-8.331-3.747-8.228-8.163
	c0.109-4.691,3.556-8.204,8.308-8.157C213.021,26.42,216.088,30.645,216.001,34.562z"/>
<path fill="#D0CECE" d="M15.107,26.476c4.619-0.009,8.254,3.54,8.275,8.079c0.021,4.418-3.704,8.143-8.149,8.146
	c-4.604,0.004-8.23-3.57-8.232-8.116C6.999,30.055,10.567,26.484,15.107,26.476z"/>
</svg>
